<svg version="1.1" id="Calque_1" xmlns="http://www.w3.org/2000/svg" xmlns:xlink="http://www.w3.org/1999/xlink" x="0px" y="0px"
	 width="123px" height="123px" viewBox="0 0 123 123" enable-background="new 0 0 123 123" xml:space="preserve">
	<path fill="#000000" d="M61.375,120.348c-8.666,0-16.791-3.353-22.878-9.441L11.843,84.252C5.754,78.165,2.401,70.04,2.401,61.374
		s3.353-16.791,9.441-22.878l26.654-26.654c6.087-6.088,14.212-9.441,22.878-9.441s16.791,3.353,22.878,9.441l26.653,26.654
		c6.089,6.087,9.441,14.212,9.441,22.878s-3.353,16.791-9.441,22.878l-26.653,26.654C78.166,116.995,70.041,120.348,61.375,120.348z
		 M61.375,7.646c-7.265,0-14.072,2.807-19.17,7.904L15.551,42.204c-5.098,5.098-7.905,11.905-7.905,19.17
		c0,7.265,2.808,14.072,7.905,19.17l26.654,26.654c5.098,5.097,11.905,7.905,19.17,7.905s14.072-2.809,19.17-7.905l26.653-26.654
		c5.097-5.098,7.905-11.905,7.905-19.17c0-7.265-2.809-14.073-7.905-19.17L80.545,15.55C75.447,10.453,68.64,7.646,61.375,7.646z"/>
	<path fill="#FFFFFF" d="M0,0.042v122.75h122.75V0.042H0z M110.906,84.252l-26.653,26.654c-6.087,6.089-14.212,9.441-22.878,9.441
		s-16.791-3.353-22.878-9.441L11.843,84.252C5.754,78.165,2.401,70.04,2.401,61.374s3.353-16.791,9.441-22.878l26.654-26.654
		c6.087-6.088,14.212-9.441,22.878-9.441s16.791,3.353,22.878,9.441l26.653,26.654c6.089,6.087,9.441,14.212,9.441,22.878
		S116.995,78.165,110.906,84.252z"/>
</svg>
