<?xml version="1.0" encoding="utf-8"?>
<!-- Generator: Adobe Illustrator 16.0.4, SVG Export Plug-In . SVG Version: 6.00 Build 0)  -->
<!DOCTYPE svg PUBLIC "-//W3C//DTD SVG 1.1//EN" "http://www.w3.org/Graphics/SVG/1.1/DTD/svg11.dtd">
<svg version="1.1" id="Calque_1" xmlns="http://www.w3.org/2000/svg" xmlns:xlink="http://www.w3.org/1999/xlink" x="0px" y="0px"
	 width="13.143px" height="19.714px" viewBox="0 0 13.143 19.714" enable-background="new 0 0 13.143 19.714" xml:space="preserve">
<g>
	<path d="M13.143,6.571c0,0.933-0.141,1.699-0.423,2.298l-4.672,9.934c-0.137,0.282-0.34,0.505-0.61,0.667s-0.558,0.244-0.866,0.244
		s-0.597-0.081-0.867-0.244s-0.468-0.385-0.597-0.667L0.424,8.869C0.141,8.27,0,7.504,0,6.571c0-1.814,0.642-3.363,1.925-4.646
		C3.209,0.642,4.757,0,6.572,0c1.813,0,3.363,0.642,4.646,1.925C12.501,3.208,13.143,4.757,13.143,6.571z M8.895,8.895
		c0.642-0.642,0.963-1.416,0.963-2.323c0-0.907-0.321-1.681-0.963-2.323C8.253,3.606,7.479,3.286,6.572,3.286
		c-0.907,0-1.682,0.321-2.323,0.963C3.607,4.89,3.286,5.665,3.286,6.571c0,0.907,0.321,1.682,0.963,2.323
		C4.89,9.537,5.665,9.857,6.572,9.857C7.479,9.857,8.253,9.537,8.895,8.895z"/>
</g>
</svg>
